<svg xmlns="http://www.w3.org/2000/svg" width="494.75" height="159.11" viewBox="0 0 494.75 159.11"><defs><style>.a{fill:#fff;}.b{fill:#d4d4d4;}</style></defs><title>social-links-gray</title><path class="a" d="M39.73,0A39.73,39.73,0,1,0,79.46,39.73,39.73,39.73,0,0,0,39.73,0Zm10,41.26h-7V66.63H32.23V41.34H27v-8.8h5.2v-2c0.06-2.1,0-4.23.24-6.31C33,19.34,36.12,16.45,41,16a23.19,23.19,0,0,1,2.36-.18H50.6v8.73H46c-2.49,0-3.28.76-3.28,3.22v4.72h7.93Z" transform="translate(0 0)"/><path class="a" d="M451.81,49.27c0,2.79,0,5.58,0,8.37A1.45,1.45,0,0,1,451.3,59a1.53,1.53,0,0,1-1.47.49c-0.62-.24-0.47-0.84-0.47-1.33,0-3,0-6,0-9,0-.36,0-0.72,0-1.07h-2.48a2.22,2.22,0,0,0-.07.32q0,5.71,0,11.43a2.92,2.92,0,0,0,.09.71,1.63,1.63,0,0,0,1.83,1.4,3.77,3.77,0,0,0,2.3-1l0.74-.55,0.19,1.24h2.47V48.11h-2.57C451.81,48.54,451.81,48.9,451.81,49.27Z" transform="translate(0 0)"/><path class="a" d="M464.09,49.76a2.43,2.43,0,0,0-3.77-1.49c-0.32.19-.61,0.43-1.15,0.81V43.2h-2.55V61.71h2.44l0.31-.79c0.29,0.21.5,0.39,0.72,0.53a3,3,0,0,0,2.91.24,2.44,2.44,0,0,0,1.27-2.38c0-.1,0-0.2,0-0.31,0-2.61,0-5.23,0-7.84A5.42,5.42,0,0,0,464.09,49.76Zm-2.5,8.94a1.05,1.05,0,0,1-1.11,1.18,1.26,1.26,0,0,1-1.29-1.27c0-1.26,0-2.51,0-3.77s0-2.45,0-3.67a1,1,0,0,1,1-1.16,1.07,1.07,0,0,1,1.32,1,4.24,4.24,0,0,1,.08.91c0,2.11,0,4.21,0,6.32A4.7,4.7,0,0,1,461.59,58.7Z" transform="translate(0 0)"/><path class="a" d="M436.22,43.32v2.46h3.07v8c0,1.33,0,2.65,0,4s-0.06,2.62.06,3.93h2.9c0-2.71,0-5.32,0-7.94s0-5.27,0-8h3.13V43.28A58.22,58.22,0,0,0,436.22,43.32Z" transform="translate(0 0)"/><path class="a" d="M455,0a39.73,39.73,0,1,0,39.73,39.73A39.73,39.73,0,0,0,455,0Zm6,16a28.28,28.28,0,0,1,3,0c0,0.4,0,.76,0,1.11q0,5,0,10.09a1.29,1.29,0,0,0,.43,1.37,1.86,1.86,0,0,0,2.15-1.79c0-3.19,0-6.39,0-9.58V16h3.07V31.21h-3l-0.1-1.39c-0.25.18-.45,0.31-0.64,0.46a5.1,5.1,0,0,1-2.35,1.16,2,2,0,0,1-2.54-1.6,3.61,3.61,0,0,1-.12-0.9q0-6.22,0-12.43C461,16.37,461,16.24,461,16Zm-8.18-.3a7.34,7.34,0,0,1,2.91.11,3.67,3.67,0,0,1,2.81,3.68c0,1.36,0,2.72,0,4.08s0,2.45,0,3.67c0,2.86-1.79,4.53-4.68,4.41a4.13,4.13,0,0,1-4.33-4.5q0-3.73,0-7.45A3.7,3.7,0,0,1,452.87,15.69Zm-11.54-5.17,2.2,8c1-2.62,1.53-5.36,2.36-8h3.53c-0.13.43-.23,0.78-0.35,1.12-1.06,3.22-2.11,6.45-3.21,9.66a7.89,7.89,0,0,0-.43,2.69c0,2,0,4,0,6,0,0.37,0,.73-0.05,1.18h-3.45c0-.41-0.06-0.77-0.07-1.13,0-2,0-3.94,0-5.91a8.33,8.33,0,0,0-.36-2.29c-1.08-3.39-2.22-6.77-3.33-10.15-0.11-.35-0.2-0.71-0.33-1.19h3.5ZM478,61.72a6.73,6.73,0,0,1-6.09,5.87,287.12,287.12,0,0,1-33.74,0,6.73,6.73,0,0,1-6.09-5.87,123.63,123.63,0,0,1,0-18.25,6.73,6.73,0,0,1,6.09-5.87,287.07,287.07,0,0,1,33.74,0A6.73,6.73,0,0,1,478,43.46,123.62,123.62,0,0,1,478,61.72Z" transform="translate(0 0)"/><path class="a" d="M470.59,47.72a4,4,0,0,0-4.52,2.5,5.73,5.73,0,0,0-.27,1.7c0,2,0,3.95,0,5.92a7.56,7.56,0,0,0,.16,1.42,3.45,3.45,0,0,0,3.36,2.87,8.84,8.84,0,0,0,1.12,0,3.55,3.55,0,0,0,3.08-4.79H471.1a14.83,14.83,0,0,1-.17,1.57,1.18,1.18,0,0,1-1.73.81,1.23,1.23,0,0,1-.64-1.19c0-1.05,0-2.1,0-3.35h5.08c0-.33.08-0.53,0.08-0.73,0-1.12,0-2.25,0-3.37A3.3,3.3,0,0,0,470.59,47.72Zm-2,5.38c0-.71-0.05-1.38,0-2a1.2,1.2,0,0,1,2.34-.1,18.34,18.34,0,0,1,.13,2.14h-2.49Z" transform="translate(0 0)"/><path class="a" d="M452.87,27.62a1.17,1.17,0,0,0,1.63,1.21,1.13,1.13,0,0,0,.85-1.33q0-4,0-7.93a1.14,1.14,0,0,0-1.31-1.3,1.1,1.1,0,0,0-1.18,1.32c0,1.32,0,2.64,0,4h0C452.87,24.91,452.84,26.26,452.87,27.62Z" transform="translate(0 0)"/><path class="a" d="M122.93,0a39.73,39.73,0,1,0,39.73,39.73A39.73,39.73,0,0,0,122.93,0Zm23.33,27.66a35.81,35.81,0,0,0-2.67,2.84,4.94,4.94,0,0,0-1,2.47c-0.68,13.37-9.87,25.6-23.45,27.71A29.35,29.35,0,0,1,100,57.44,6.7,6.7,0,0,1,99.36,57v-0.3c4.89,0,9.57-.75,13.72-3.86-3.78-1.25-7.21-2.78-8.71-7.15h3.51l0.07-.32c-2.65-1.22-4.94-2.75-6.17-5.47a43.89,43.89,0,0,1-1.39-4.47l3.9,1.07,0.32-.22c-3.92-3.83-4.65-8.2-2.47-13.23,5.49,6.18,12.08,10,20.46,10.6a30.29,30.29,0,0,1,0-3.7,9.87,9.87,0,0,1,14.7-7.29,1.53,1.53,0,0,1,.37.22c1.68,1.75,3.53,1.43,5.47.52,0.89-.43,1.83-0.78,2.74-1.16l0.28,0.26-3.26,4.64L143,27.38l4-1.15,0.15,0.19A13.78,13.78,0,0,1,146.26,27.66Z" transform="translate(0 0)"/><path class="a" d="M205.93,0.1a39.73,39.73,0,1,0,39.73,39.73A39.73,39.73,0,0,0,205.93.1Zm-5.18,40.53c0,0.35,0,.73-0.06,1.08l11.43,5.71a10.15,10.15,0,1,1-3.24,7.42c0-.35,0-0.73.06-1.08l-11.42-5.71a10.15,10.15,0,1,1,0-14.85l11.42-5.71c0-.35-0.06-0.73-0.06-1.08a10.17,10.17,0,1,1,3.24,7.42l-11.43,5.71C200.72,39.9,200.75,40.28,200.75,40.63Z" transform="translate(0 0)"/><path class="a" d="M289.33,0a39.73,39.73,0,1,0,39.73,39.73A39.73,39.73,0,0,0,289.33,0Zm11.13,40.34c0,12.21-8.11,20.42-20.18,20.42a21.24,21.24,0,0,1-21.41-21,21.24,21.24,0,0,1,21.41-21,21.63,21.63,0,0,1,14,5.16L288.88,30a13.24,13.24,0,0,0-8.6-3.16,12.88,12.88,0,1,0,0,25.76h0c6.12,0,10.12-2.93,11.43-8.19H280.38V36.27h20.08v4.07Zm16.14,0.9v6.21h-5V41.24h-6.21v-5h6.21v-6.2h5v6.2h6.21v5H316.6Z" transform="translate(0 0)"/><path class="a" d="M372.54,0a39.73,39.73,0,1,0,39.73,39.73A39.73,39.73,0,0,0,372.54,0ZM361.83,58.49H353V31.61h8.83V58.49Zm0.51-34a4.76,4.76,0,0,1-4.92,3.39c-3.59,0-5.87-3-4.73-6.27,0.87-2.41,3.75-3.63,6.55-2.78A4.59,4.59,0,0,1,362.34,24.47ZM394.2,57.82v0.6h-8.9v-14a12.65,12.65,0,0,0-.39-3.24,4.35,4.35,0,0,0-7-2.28,5,5,0,0,0-2.08,4.25V58.49H367V31.63h8.89v3.51a2.34,2.34,0,0,0,.31-0.26c2.6-3.69,6.26-4.6,10.43-3.69S393,35,393.83,39a19.52,19.52,0,0,1,.37,4V57.82Z" transform="translate(0 0)"/><path class="b" d="M39.73,79.46a39.73,39.73,0,1,0,39.73,39.73A39.73,39.73,0,0,0,39.73,79.46Zm10,41.35h-7v25.37H32.23V120.89H27v-8.8h5.2v-2c0.06-2.1,0-4.23.24-6.31C33,98.9,36.12,96,41,95.52a23.19,23.19,0,0,1,2.36-.18H50.6v8.73H46c-2.49,0-3.28.76-3.28,3.22V112h7.93Z" transform="translate(0 0)"/><path class="b" d="M451.81,128.82c0,2.79,0,5.58,0,8.37a1.45,1.45,0,0,1-.51,1.36,1.53,1.53,0,0,1-1.47.49c-0.62-.24-0.47-0.84-0.47-1.33,0-3,0-6,0-9,0-.36,0-0.72,0-1.07h-2.48a2.22,2.22,0,0,0-.07.32q0,5.71,0,11.43a2.92,2.92,0,0,0,.09.71,1.63,1.63,0,0,0,1.83,1.4,3.77,3.77,0,0,0,2.3-1l0.74-.55,0.19,1.24h2.47V127.67h-2.57C451.81,128.09,451.81,128.46,451.81,128.82Z" transform="translate(0 0)"/><path class="b" d="M464.09,129.32a2.43,2.43,0,0,0-3.77-1.49c-0.32.19-.61,0.43-1.15,0.81v-5.88h-2.55v18.51h2.44l0.31-.79c0.29,0.21.5,0.39,0.72,0.53a3,3,0,0,0,2.91.24,2.44,2.44,0,0,0,1.27-2.38c0-.1,0-0.2,0-0.31,0-2.61,0-5.23,0-7.84A5.42,5.42,0,0,0,464.09,129.32Zm-2.5,8.94a1.05,1.05,0,0,1-1.11,1.18,1.26,1.26,0,0,1-1.29-1.27c0-1.26,0-2.51,0-3.77s0-2.45,0-3.67a1,1,0,0,1,1-1.16,1.07,1.07,0,0,1,1.32,1,4.24,4.24,0,0,1,.08.91c0,2.11,0,4.21,0,6.32A4.7,4.7,0,0,1,461.59,138.26Z" transform="translate(0 0)"/><path class="b" d="M436.22,122.87v2.46h3.07v8c0,1.33,0,2.65,0,4s-0.06,2.62.06,3.93h2.9c0-2.71,0-5.32,0-7.94s0-5.27,0-8h3.13v-2.43A58.22,58.22,0,0,0,436.22,122.87Z" transform="translate(0 0)"/><path class="b" d="M452.87,107.17a1.17,1.17,0,0,0,1.63,1.21,1.13,1.13,0,0,0,.85-1.33q0-4,0-7.93a1.14,1.14,0,0,0-1.31-1.3,1.1,1.1,0,0,0-1.18,1.32c0,1.32,0,2.64,0,4h0C452.87,104.46,452.84,105.82,452.87,107.17Z" transform="translate(0 0)"/><path class="b" d="M470.59,127.27a4,4,0,0,0-4.52,2.5,5.73,5.73,0,0,0-.27,1.7c0,2,0,3.95,0,5.92a7.56,7.56,0,0,0,.16,1.42,3.45,3.45,0,0,0,3.36,2.87,8.84,8.84,0,0,0,1.12,0,3.55,3.55,0,0,0,3.08-4.79H471.1a14.83,14.83,0,0,1-.17,1.57,1.18,1.18,0,0,1-1.73.81,1.23,1.23,0,0,1-.64-1.19c0-1.05,0-2.1,0-3.35h5.08c0-.33.08-0.53,0.08-0.73,0-1.12,0-2.25,0-3.37A3.3,3.3,0,0,0,470.59,127.27Zm-2,5.38c0-.71-0.05-1.38,0-2a1.2,1.2,0,0,1,2.34-.1,18.34,18.34,0,0,1,.13,2.14h-2.49Z" transform="translate(0 0)"/><path class="b" d="M455,79.59a39.73,39.73,0,1,0,39.73,39.73A39.73,39.73,0,0,0,455,79.59Zm6,16a28.28,28.28,0,0,1,3,0c0,0.4,0,.76,0,1.11q0,5,0,10.09a1.29,1.29,0,0,0,.43,1.37,1.86,1.86,0,0,0,2.15-1.79c0-3.19,0-6.39,0-9.58V95.56h3.07v15.21h-3l-0.1-1.39c-0.25.18-.45,0.31-0.64,0.46a5.1,5.1,0,0,1-2.35,1.16,2,2,0,0,1-2.54-1.6,3.61,3.61,0,0,1-.12-0.9q0-6.22,0-12.43C461,95.93,461,95.8,461,95.54Zm-8.18-.3a7.34,7.34,0,0,1,2.91.11A3.67,3.67,0,0,1,458.59,99c0,1.36,0,2.72,0,4.08s0,2.45,0,3.67c0,2.86-1.79,4.53-4.68,4.41a4.13,4.13,0,0,1-4.33-4.5q0-3.73,0-7.45A3.7,3.7,0,0,1,452.87,95.24Zm-11.54-5.17,2.2,8c1-2.62,1.53-5.36,2.36-8h3.53c-0.13.43-.23,0.78-0.35,1.12-1.06,3.22-2.11,6.45-3.21,9.66a7.89,7.89,0,0,0-.43,2.69c0,2,0,4,0,6,0,0.37,0,.73-0.05,1.18h-3.45c0-.41-0.06-0.77-0.07-1.13,0-2,0-3.94,0-5.91a8.33,8.33,0,0,0-.36-2.29c-1.08-3.39-2.22-6.77-3.33-10.15-0.11-.35-0.2-0.71-0.33-1.19h3.5ZM478,141.27a6.73,6.73,0,0,1-6.09,5.87,287.12,287.12,0,0,1-33.74,0,6.73,6.73,0,0,1-6.09-5.87,123.63,123.63,0,0,1,0-18.25,6.73,6.73,0,0,1,6.09-5.87,287.07,287.07,0,0,1,33.74,0A6.73,6.73,0,0,1,478,123,123.62,123.62,0,0,1,478,141.27Z" transform="translate(0 0)"/><path class="b" d="M122.93,79.56a39.73,39.73,0,1,0,39.73,39.73A39.73,39.73,0,0,0,122.93,79.56Zm23.33,27.66a35.81,35.81,0,0,0-2.67,2.84,4.94,4.94,0,0,0-1,2.47c-0.68,13.37-9.87,25.6-23.45,27.71A29.35,29.35,0,0,1,100,137a6.7,6.7,0,0,1-.65-0.47v-0.3c4.89,0,9.57-.75,13.72-3.86-3.78-1.25-7.21-2.78-8.71-7.15h3.51l0.07-.32c-2.65-1.22-4.94-2.75-6.17-5.47a43.89,43.89,0,0,1-1.39-4.47l3.9,1.07,0.32-.22c-3.92-3.83-4.65-8.2-2.47-13.23,5.49,6.18,12.08,10,20.46,10.6a30.29,30.29,0,0,1,0-3.7,9.87,9.87,0,0,1,14.7-7.29,1.53,1.53,0,0,1,.37.22c1.68,1.75,3.53,1.43,5.47.52,0.89-.43,1.83-0.78,2.74-1.16l0.28,0.26-3.26,4.64,0.11,0.27,4-1.15,0.15,0.19A13.78,13.78,0,0,1,146.26,107.21Z" transform="translate(0 0)"/><path class="b" d="M205.93,79.66a39.73,39.73,0,1,0,39.73,39.73A39.73,39.73,0,0,0,205.93,79.66Zm-5.18,40.53c0,0.35,0,.73-0.06,1.08L212.11,127a10.15,10.15,0,1,1-3.24,7.42c0-.35,0-0.73.06-1.08l-11.42-5.71a10.15,10.15,0,1,1,0-14.85l11.42-5.71c0-.35-0.06-0.73-0.06-1.08a10.17,10.17,0,1,1,3.24,7.42l-11.43,5.71C200.72,119.46,200.75,119.84,200.75,120.19Z" transform="translate(0 0)"/><path class="b" d="M289.33,79.56a39.73,39.73,0,1,0,39.73,39.73A39.73,39.73,0,0,0,289.33,79.56Zm11.13,40.34c0,12.21-8.11,20.42-20.18,20.42a21,21,0,1,1,0-42,21.63,21.63,0,0,1,14,5.16l-5.4,6.06a13.24,13.24,0,0,0-8.6-3.16,12.88,12.88,0,0,0,0,25.76h0c6.12,0,10.12-2.93,11.43-8.19H280.38v-8.12h20.08v4.07Zm16.14,0.9V127h-5V120.8h-6.21v-5h6.21v-6.2h5v6.2h6.21v5H316.6Z" transform="translate(0 0)"/><path class="b" d="M372.54,79.56a39.73,39.73,0,1,0,39.73,39.73A39.73,39.73,0,0,0,372.54,79.56ZM361.83,138H353V111.17h8.83V138Zm0.51-34a4.76,4.76,0,0,1-4.92,3.39c-3.59,0-5.87-3-4.73-6.27,0.87-2.41,3.75-3.63,6.55-2.78A4.59,4.59,0,0,1,362.34,104Zm31.86,33.35V138h-8.9V124a12.65,12.65,0,0,0-.39-3.24,4.35,4.35,0,0,0-7-2.28,5,5,0,0,0-2.08,4.25V138H367V111.19h8.89v3.51a2.34,2.34,0,0,0,.31-0.26c2.6-3.69,6.26-4.6,10.43-3.69s6.37,3.79,7.24,7.79a19.52,19.52,0,0,1,.37,4v14.86Z" transform="translate(0 0)"/></svg>